<svg width="18" height="13" viewBox="0 0 18 13" fill="none" xmlns="http://www.w3.org/2000/svg">
<path d="M16.5289 0.158203H1.67029C0.790709 0.158203 0.0996094 0.849303 0.0996094 1.72888V10.8388C0.0996094 11.687 0.853532 12.4095 1.76453 12.4095H16.5289C17.4085 12.4095 18.0996 11.7184 18.0996 10.8388V1.72888C18.0996 0.849303 17.3771 0.158203 16.5289 0.158203ZM16.8431 10.242L12.6336 5.78124L16.8431 2.20009V10.242ZM1.35615 2.20009L5.53416 5.87549L1.35615 10.242V2.20009ZM8.98966 7.22627L7.01061 5.49852C6.97919 5.43569 6.94778 5.40428 6.91636 5.34145C6.85354 5.27862 6.79071 5.24721 6.72788 5.2158L2.3928 1.41475H15.8378L8.98966 7.22627ZM6.47657 6.72365L8.54987 8.54564C8.67553 8.63988 8.80118 8.70271 8.95825 8.70271C9.11532 8.70271 9.24097 8.63988 9.36663 8.54564L11.6598 6.59799L15.9635 11.153H2.23573L6.47657 6.72365Z" fill="white"/>
</svg>
