<svg width="20" height="20" viewBox="0 0 20 21" fill="none" xmlns="http://www.w3.org/2000/svg">
<path d="M9.99692 21C7.34485 21.0024 4.8007 19.9496 2.9254 18.0737C1.05009 16.1978 -0.00238199 13.6529 4.04814e-06 11V10.8C0.0817668 6.79223 2.54702 3.22016 6.26443 1.72307C9.98185 0.225973 14.2337 1.0929 17.0687 3.92601C19.9303 6.78609 20.7868 11.0893 19.2384 14.8276C17.6901 18.5659 14.0421 21.0024 9.99692 21ZM9.99693 12.41L12.5861 15L13.9957 13.59L11.4065 11L13.9957 8.41001L12.5861 7.00001L9.99693 9.59001L7.40772 7.00001L5.99816 8.41001L8.58736 11L5.99816 13.59L7.40772 15L9.99693 12.411V12.41Z" fill="#E55946"/>
</svg>
